<svg xmlns="http://www.w3.org/2000/svg" viewBox="0 0 401.14 548.52"><defs><style>.cls-1{fill:#85b916;}</style></defs><title>EPUB Logo in color</title><desc>EPUB logo in RGB colors: a slanted and sytlized letter "e" (in green), with the word "EPUB" underneath (in black).</desc><g id="Logo"><path id="Color" class="cls-1" d="M297.63,462.07,171.58,336l126-126,42,42-84.05,84,42,42L423.69,252,313.88,142.17a23,23,0,0,0-32.48,0L103.79,319.78a23,23,0,0,0,0,32.48L281.4,529.86a23,23,0,0,0,32.48,0l177.61-177.6a23,23,0,0,0,0-32.48L465.7,294Z" transform="translate(-97.07 -135.44)"/></g><g id="Text"><g id="Black"><path d="M128.5,684V620.63h61v8.47H139.06v17.68h30.8v8.34h-30.8v20.13H190V684Z" transform="translate(-97.07 -135.44)"/><path d="M215.16,684V620.63h51q7,0,10.17,2.89t3.18,9.39V647q0,6.51-3.18,9.39t-10.17,2.89H225.71V684ZM262,628.86H225.71v22H262q3.81,0,5.34-1.41t1.54-5.18v-8.79c0-2.52-.54-4.25-1.6-5.19S264.5,628.86,262,628.86Z" transform="translate(-97.07 -135.44)"/><path d="M316.05,620.63v54.5H362.2v-54.5h10.56V669c0,5.82-1,9.76-3.08,11.85S363.74,684,358,684H320.37q-8.61,0-11.74-3.13c-2.09-2.09-3.14-6-3.14-11.85V620.63Z" transform="translate(-97.07 -135.44)"/><path d="M405.65,684V620.63h51q7,0,10.16,2.89t3.19,9.39v7.36q0,9.45-10.43,10.8,10.8,1.35,10.8,12.4v8.1q0,12.4-17.52,12.4Zm53.64-43v-6.38c0-2.21-.51-3.69-1.53-4.42a8.65,8.65,0,0,0-5-1.11H416.21v17.56h36.58Q459.29,646.66,459.29,641Zm.49,26.76v-5.28c0-3-.51-5-1.53-6s-2.85-1.59-5.46-1.59H416.21v20.37h36.58q3.91,0,5.46-1.59C459.27,672.6,459.78,670.63,459.78,667.77Z" transform="translate(-97.07 -135.44)"/></g></g></svg>
